<svg width="120" style="enable-background:new 0 0 512 512;" version="1.1" viewBox="0 0 512 512" xml:space="preserve" xmlns="http://www.w3.org/2000/svg" xmlns:xlink="http://www.w3.org/1999/xlink">
    <path class="st0" fill="#6F707E" d="M477.6,196.4H82.2C82.9,101,160.7,23.5,256.3,23.5c61.2,0,116.8,31.2,148.7,83.4   c3.5,5.8,11.1,7.6,16.8,4c5.7-3.5,7.5-11,4-16.8C389.4,34.7,326-0.8,256.3-0.8c-109,0-197.8,88.4-198.5,197.2H35   c-6.7,0-12.2,5.5-12.2,12.2V499c0,6.7,5.5,12.2,12.2,12.2h442.6c6.7,0,12.2-5.5,12.2-12.2V208.6   C489.8,201.8,484.3,196.4,477.6,196.4z M465.4,486.8H47.2v-266h418.2V486.8z" />
    <path class="st0" fill="#6F707E" d="M244.1,368.1v56.3c0,6.7,5.5,12.2,12.2,12.2s12.2-5.5,12.2-12.2v-56.3   c21.4-5.5,37.3-24.7,37.3-47.8c0-27.3-22.2-49.5-49.5-49.5s-49.5,22.2-49.5,49.5C206.8,343.4,222.7,362.7,244.1,368.1z    M256.3,295.3c13.8,0,25.1,11.3,25.1,25.1c0,13.8-11.3,25.1-25.1,25.1c-13.8,0-25.1-11.2-25.1-25.1   C231.2,306.6,242.4,295.3,256.3,295.3z" />
</svg>